PathFileType	4	(X/Y/Z)	c:/Users/goper/Files/vsCode/490R/osim_files/A04/A04_Slow_01.trc
DataRate	CameraRate	NumFrames	NumMarkers	Units                	OrigDataRate	OrigDataStartFrame	OrigNumFrames
120.00	120.00	4	36	mm	120.0	650	1299
                Frame#	Time	LPSIS			LASIS			LTH1			LTH2			LTH3			LTH4			LLFE			LMFE			LSH1			LSH2			LSH3			LSH4			LLMAL			LMMAL			LCAL			LMTP5			LTOE			LMTP1			RPSIS			RASIS			RTH1			RTH2			RTH3			RTH4			RLFE			RMFE			RSH1			RSH2			RSH3			RSH4			RLMAL			RMMAL			RCAL			RMTP1			RTOE			RMTP5		
		X1	Y1	Z1	X2	Y2	Z2	X3	Y3	Z3	X4	Y4	Z4	X5	Y5	Z5	X6	Y6	Z6	X7	Y7	Z7	X8	Y8	Z8	X9	Y9	Z9	X10	Y10	Z10	X11	Y11	Z11	X12	Y12	Z12	X13	Y13	Z13	X14	Y14	Z14	X15	Y15	Z15	X16	Y16	Z16	X17	Y17	Z17	X18	Y18	Z18	X19	Y19	Z19	X20	Y20	Z20	X21	Y21	Z21	X22	Y22	Z22	X23	Y23	Z23	X24	Y24	Z24	X25	Y25	Z25	X26	Y26	Z26	X27	Y27	Z27	X28	Y28	Z28	X29	Y29	Z29	X30	Y30	Z30	X31	Y31	Z31	X32	Y32	Z32	X33	Y33	Z33	X34	Y34	Z34	X35	Y35	Z35	X36	Y36	Z36

650	5.40833	165.31393	1060.73730	358.89316	-60.16555	1020.79706	441.18054	-93.41740	677.09735	471.76892	-114.51848	642.03900	470.58289	-145.54388	707.58801	471.05533	-163.27939	665.93243	469.07578	-182.02872	558.37720	459.51971	-192.65129	557.42029	319.00262	-180.11534	450.79236	465.31851	-198.14369	412.26407	464.62012	-237.14062	470.53516	450.97467	-246.50775	428.28281	450.57666	-258.28043	134.15619	432.87469	-278.29416	140.23940	347.88556	-203.64561	80.80421	378.73105	-406.58521	109.16537	465.86111	-449.31790	131.45471	402.72302	-435.04358	112.66410	359.37500	168.04102	1052.75818	252.32294	-53.65227	1022.85553	153.83553	107.66422	736.45587	123.31768	107.97879	693.87549	125.83906	46.16543	729.45374	115.89242	55.73793	683.40436	122.46750	84.96627	549.50427	148.58592	73.30992	544.13721	264.29068	183.85384	349.33453	158.22473	185.70802	301.92905	165.73380	124.24377	338.77841	149.83760	136.28035	291.78720	152.71773	192.54326	107.49482	159.58443	157.60896	114.17699	290.42596	260.12723	67.01307	239.94707	35.19803	53.93710	263.05115	13.58195	76.07031	215.99641	51.95128	51.24009	144.74530
651	5.41667	155.72330	1058.44580	359.79324	-68.87502	1018.30719	441.75714	-98.88524	673.40631	471.46402	-121.86295	636.28162	469.90030	-151.76060	703.18848	470.79132	-169.32629	661.57312	468.78943	-187.44835	554.71075	459.12991	-198.57278	554.12964	318.83249	-189.68979	447.10114	465.06967	-209.15521	409.30841	464.55786	-245.91037	469.08676	451.18088	-256.82672	427.20035	450.79996	-280.11349	133.73807	433.80228	-300.29453	140.31361	349.19778	-227.36758	78.56176	379.63065	-429.20068	114.48446	467.45523	-471.25204	138.33449	404.51984	-458.29840	119.60337	360.46252	158.53938	1050.71191	253.14868	-62.97440	1021.47980	154.74702	100.98281	736.35284	123.62266	101.63845	693.75146	126.22202	39.63948	728.73053	116.26905	49.37234	682.72632	123.05653	80.36450	549.15137	148.83376	68.51125	543.65314	264.76437	181.37888	349.83389	158.56808	183.48891	302.34979	165.99808	121.67391	338.73471	150.03796	134.77203	292.87088	154.21512	192.05472	108.07790	159.63965	156.83278	114.29073	290.49936	259.82672	67.64015	240.01976	35.04229	53.49853	263.10532	13.33486	75.68338	216.13791	51.89421	51.10623	144.85362
652	5.42500	146.14117	1056.08459	360.83533	-78.84635	1016.12494	442.60110	-104.76595	669.39008	471.05331	-127.93054	632.00488	469.43939	-158.11900	698.59686	470.26694	-175.50362	657.10913	468.25070	-192.94345	551.01465	458.63330	-204.84315	550.64862	318.29138	-198.89433	443.53998	464.73172	-219.73489	406.52042	464.41675	-254.58282	467.53616	451.25674	-266.87424	426.11655	451.04172	-300.80563	133.66544	434.71854	-321.53003	140.80667	349.47021	-250.61720	76.32628	380.20929	-450.36606	119.89975	469.10312	-491.87027	145.17767	406.38394	-479.54645	125.67818	362.46368	148.90398	1048.55139	254.21539	-72.36460	1020.03174	155.71808	94.14595	736.12488	123.90515	95.21140	693.54211	126.59904	32.86492	727.90540	116.65591	43.11576	682.03595	123.46862	75.52950	548.66553	149.07545	63.24861	543.13098	265.07825	178.30441	350.25266	158.87991	181.12178	302.82825	166.23660	118.89224	338.55594	150.15874	132.49065	292.92816	154.43491	191.22083	108.52738	159.80745	156.04922	114.41108	290.50583	259.44562	68.35897	240.06345	35.04550	53.59038	263.60071	13.04902	75.29796	216.21490	51.77680	50.94764	144.85629
653	5.43333	136.23683	1053.59216	362.06662	-88.84892	1013.70703	443.39777	-111.26427	665.10291	470.20016	-134.00526	627.66528	468.92819	-164.61935	694.10352	469.61752	-181.74728	652.58105	467.57617	-198.25957	547.28174	458.09915	-210.62648	547.05615	317.44150	-207.82118	439.97147	464.33575	-229.79842	403.76257	464.21283	-262.59149	465.92023	451.20367	-276.44217	424.97202	451.13901	-320.17981	133.73648	435.53870	-341.14157	141.61165	350.33618	-272.48901	74.65730	380.75043	-469.85587	125.16743	470.78644	-510.91663	151.90025	408.35245	-499.42715	131.85089	364.45956	139.24725	1046.40955	255.39093	-81.78341	1018.50586	156.57709	87.27562	735.82471	124.30718	88.72444	693.37762	126.96562	25.90697	727.06348	117.15353	36.54532	681.18658	124.02576	71.05523	548.14282	148.57899	57.90549	542.51758	265.36346	175.34665	350.69312	159.19215	178.66425	303.33743	166.48306	116.04770	338.44083	150.39793	130.05858	292.92624	154.60930	190.55711	109.11005	159.93091	155.30664	114.61885	290.50949	259.07724	69.07763	240.15355	34.57962	52.84855	263.21332	12.82372	74.88057	216.25139	51.63167	50.77912	144.84018
